<svg xmlns="http://www.w3.org/2000/svg" viewBox="0 0 600 500" width="600" height="500">
<rect width="600" height="500" fill="white"/>
<text x="300.0" y="35" text-anchor="middle" font-size="16" font-weight="700" fill="#333" font-family="Segoe UI, Helvetica, Arial, sans-serif">Pipeline Architecture</text>
<path d="M 260.0,270.0 L 260.7,170.0 A 100.0,100.0 0 0,1 346.9,319.4 Z" fill="#4E79A7" stroke="white" stroke-width="1" opacity="0.95"/>
<text x="303" y="245" text-anchor="middle" dominant-baseline="central" font-size="12" font-weight="600" fill="white" font-family="Segoe UI, Helvetica, Arial, sans-serif">Input</text>
<path d="M 261.3,80.0 A 190.0,190.0 0 0,1 436.4,199.4 L 357.5,231.0 A 105.0,105.0 0 0,0 260.7,165.0 Z" fill="#EDC948" stroke="white" stroke-width="1" opacity="0.85"/>
<text x="343" y="148" text-anchor="middle" dominant-baseline="central" font-size="10" font-weight="600" fill="white" font-family="Segoe UI, Helvetica, Arial, sans-serif">Markdown</text>
<path d="M 437.3,201.8 A 190.0,190.0 0 0,1 445.5,311.0 L 362.5,292.6 A 105.0,105.0 0 0,0 358.0,232.3 Z" fill="#B07AA1" stroke="white" stroke-width="1" opacity="0.85"/>
<text x="407" y="259" text-anchor="middle" dominant-baseline="central" font-size="10" font-weight="600" fill="white" font-family="Segoe UI, Helvetica, Arial, sans-serif">YAML Data</text>
<path d="M 444.9,313.6 A 190.0,190.0 0 0,1 425.2,363.8 L 351.3,321.9 A 105.0,105.0 0 0,0 362.2,294.1 Z" fill="#FF9DA7" stroke="white" stroke-width="1" opacity="0.85"/>
<text x="397" y="324" text-anchor="middle" dominant-baseline="central" font-size="10" font-weight="600" fill="white" font-family="Segoe UI, Helvetica, Arial, sans-serif">Pipe Tables</text>
<path d="M 260.0,270.0 L 346.3,320.6 A 100.0,100.0 0 0,1 173.7,320.6 Z" fill="#F28E2B" stroke="white" stroke-width="1" opacity="0.95"/>
<text x="260" y="320" text-anchor="middle" dominant-baseline="central" font-size="12" font-weight="600" fill="white" font-family="Segoe UI, Helvetica, Arial, sans-serif">Processing</text>
<path d="M 423.9,366.1 A 190.0,190.0 0 0,1 317.3,451.2 L 291.6,370.1 A 105.0,105.0 0 0,0 350.6,323.1 Z" fill="#EDC948" stroke="white" stroke-width="1" opacity="0.85"/>
<text x="352" y="385" text-anchor="middle" dominant-baseline="central" font-size="10" font-weight="600" fill="white" font-family="Segoe UI, Helvetica, Arial, sans-serif">md2svg</text>
<path d="M 314.7,451.9 A 190.0,190.0 0 0,1 154.1,427.7 L 201.5,357.2 A 105.0,105.0 0 0,0 290.2,370.5 Z" fill="#B07AA1" stroke="white" stroke-width="1" opacity="0.85"/>
<text x="238" y="416" text-anchor="middle" dominant-baseline="central" font-size="10" font-weight="600" fill="white" font-family="Segoe UI, Helvetica, Arial, sans-serif">Python markdown</text>
<path d="M 151.9,426.2 A 190.0,190.0 0 0,1 96.1,366.1 L 169.4,323.1 A 105.0,105.0 0 0,0 200.2,356.3 Z" fill="#FF9DA7" stroke="white" stroke-width="1" opacity="0.85"/>
<text x="152" y="370" text-anchor="middle" dominant-baseline="central" font-size="10" font-weight="600" fill="white" font-family="Segoe UI, Helvetica, Arial, sans-serif">Mermaid CDN</text>
<path d="M 260.0,270.0 L 173.1,319.4 A 100.0,100.0 0 0,1 259.3,170.0 Z" fill="#E15759" stroke="white" stroke-width="1" opacity="0.95"/>
<text x="217" y="245" text-anchor="middle" dominant-baseline="central" font-size="12" font-weight="600" fill="white" font-family="Segoe UI, Helvetica, Arial, sans-serif">Output</text>
<path d="M 94.8,363.8 A 190.0,190.0 0 0,1 70.4,257.1 L 155.2,262.9 A 105.0,105.0 0 0,0 168.7,321.9 Z" fill="#EDC948" stroke="white" stroke-width="1" opacity="0.85"/>
<text x="116" y="303" text-anchor="middle" dominant-baseline="central" font-size="10" font-weight="600" fill="white" font-family="Segoe UI, Helvetica, Arial, sans-serif">HTML</text>
<path d="M 70.6,254.5 A 190.0,190.0 0 0,1 176.4,99.4 L 213.8,175.7 A 105.0,105.0 0 0,0 155.4,261.4 Z" fill="#B07AA1" stroke="white" stroke-width="1" opacity="0.85"/>
<text x="138" y="187" text-anchor="middle" dominant-baseline="central" font-size="10" font-weight="600" fill="white" font-family="Segoe UI, Helvetica, Arial, sans-serif">PDF</text>
<path d="M 178.8,98.2 A 190.0,190.0 0 0,1 258.7,80.0 L 259.3,165.0 A 105.0,105.0 0 0,0 215.1,175.1 Z" fill="#FF9DA7" stroke="white" stroke-width="1" opacity="0.85"/>
<text x="227" y="126" text-anchor="middle" dominant-baseline="central" font-size="10" font-weight="600" fill="white" font-family="Segoe UI, Helvetica, Arial, sans-serif">SVG Charts</text>
<rect x="470" y="70" width="14" height="14" rx="2" fill="#4E79A7"/>
<text x="490" y="81" font-size="10" fill="#444" font-family="Segoe UI, Helvetica, Arial, sans-serif">Input (33%)</text>
<rect x="470" y="92" width="14" height="14" rx="2" fill="#F28E2B"/>
<text x="490" y="103" font-size="10" fill="#444" font-family="Segoe UI, Helvetica, Arial, sans-serif">Processing (33%)</text>
<rect x="470" y="114" width="14" height="14" rx="2" fill="#E15759"/>
<text x="490" y="125" font-size="10" fill="#444" font-family="Segoe UI, Helvetica, Arial, sans-serif">Output (33%)</text>
</svg>