<svg xmlns="http://www.w3.org/2000/svg" viewBox="0 0 500 400" width="500" height="400">
<rect width="500" height="400" fill="white"/>
<text x="250.0" y="35" text-anchor="middle" font-size="16" font-weight="700" fill="#333" font-family="Segoe UI, Helvetica, Arial, sans-serif">Dependency Licenses</text>
<path d="M 200.0,220.0 L 201.0,80.0 A 140.0,140.0 0 1,1 157.7,353.4 Z" fill="#4E79A7" stroke="white" stroke-width="1.5" opacity="0.9"/>
<text x="269" y="231" text-anchor="middle" dominant-baseline="central" font-size="10" font-weight="600" fill="white" font-family="Segoe UI, Helvetica, Arial, sans-serif">55%</text>
<rect x="380" y="80" width="14" height="14" rx="2" fill="#4E79A7"/>
<text x="400" y="91" font-size="10" fill="#444" font-family="Segoe UI, Helvetica, Arial, sans-serif">MIT (55%)</text>
<path d="M 200.0,220.0 L 155.8,352.8 A 140.0,140.0 0 0,1 66.6,177.7 Z" fill="#F28E2B" stroke="white" stroke-width="1.5" opacity="0.9"/>
<text x="138" y="252" text-anchor="middle" dominant-baseline="central" font-size="10" font-weight="600" fill="white" font-family="Segoe UI, Helvetica, Arial, sans-serif">25%</text>
<rect x="380" y="102" width="14" height="14" rx="2" fill="#F28E2B"/>
<text x="400" y="113" font-size="10" fill="#444" font-family="Segoe UI, Helvetica, Arial, sans-serif">BSD (25%)</text>
<path d="M 200.0,220.0 L 67.2,175.8 A 140.0,140.0 0 0,1 155.8,87.2 Z" fill="#E15759" stroke="white" stroke-width="1.5" opacity="0.9"/>
<text x="151" y="171" text-anchor="middle" dominant-baseline="central" font-size="10" font-weight="600" fill="white" font-family="Segoe UI, Helvetica, Arial, sans-serif">15%</text>
<rect x="380" y="124" width="14" height="14" rx="2" fill="#E15759"/>
<text x="400" y="135" font-size="10" fill="#444" font-family="Segoe UI, Helvetica, Arial, sans-serif">Apache 2.0 (15%)</text>
<path d="M 200.0,220.0 L 157.7,86.6 A 140.0,140.0 0 0,1 199.0,80.0 Z" fill="#76B7B2" stroke="white" stroke-width="1.5" opacity="0.9"/>
<rect x="380" y="146" width="14" height="14" rx="2" fill="#76B7B2"/>
<text x="400" y="157" font-size="10" fill="#444" font-family="Segoe UI, Helvetica, Arial, sans-serif">ISC (5%)</text>
</svg>