<svg xmlns="http://www.w3.org/2000/svg" viewBox="0 0 500 400" width="500" height="400">
<rect width="500" height="400" fill="white"/>
<text x="250.0" y="35" text-anchor="middle" font-size="16" font-weight="700" fill="#333" font-family="Segoe UI, Helvetica, Arial, sans-serif">Deployment Platforms</text>
<path d="M 200.0,220.0 L 201.0,80.0 A 140.0,140.0 0 1,1 183.4,359.0 Z" fill="#4E79A7" stroke="white" stroke-width="1.5" opacity="0.9"/>
<text x="270" y="224" text-anchor="middle" dominant-baseline="central" font-size="10" font-weight="600" fill="white" font-family="Segoe UI, Helvetica, Arial, sans-serif">52%</text>
<rect x="380" y="80" width="14" height="14" rx="2" fill="#4E79A7"/>
<text x="400" y="91" font-size="10" fill="#444" font-family="Segoe UI, Helvetica, Arial, sans-serif">Linux ARM64 (52%)</text>
<path d="M 200.0,220.0 L 181.5,358.8 A 140.0,140.0 0 0,1 66.6,177.7 Z" fill="#F28E2B" stroke="white" stroke-width="1.5" opacity="0.9"/>
<text x="141" y="258" text-anchor="middle" dominant-baseline="central" font-size="10" font-weight="600" fill="white" font-family="Segoe UI, Helvetica, Arial, sans-serif">28%</text>
<rect x="380" y="102" width="14" height="14" rx="2" fill="#F28E2B"/>
<text x="400" y="113" font-size="10" fill="#444" font-family="Segoe UI, Helvetica, Arial, sans-serif">Linux x64 (28%)</text>
<path d="M 200.0,220.0 L 67.2,175.8 A 140.0,140.0 0 0,1 131.7,97.8 Z" fill="#E15759" stroke="white" stroke-width="1.5" opacity="0.9"/>
<text x="146" y="175" text-anchor="middle" dominant-baseline="central" font-size="10" font-weight="600" fill="white" font-family="Segoe UI, Helvetica, Arial, sans-serif">12%</text>
<rect x="380" y="124" width="14" height="14" rx="2" fill="#E15759"/>
<text x="400" y="135" font-size="10" fill="#444" font-family="Segoe UI, Helvetica, Arial, sans-serif">Cloud (12%)</text>
<path d="M 200.0,220.0 L 133.4,96.8 A 140.0,140.0 0 0,1 199.0,80.0 Z" fill="#76B7B2" stroke="white" stroke-width="1.5" opacity="0.9"/>
<text x="183" y="152" text-anchor="middle" dominant-baseline="central" font-size="10" font-weight="600" fill="white" font-family="Segoe UI, Helvetica, Arial, sans-serif">8%</text>
<rect x="380" y="146" width="14" height="14" rx="2" fill="#76B7B2"/>
<text x="400" y="157" font-size="10" fill="#444" font-family="Segoe UI, Helvetica, Arial, sans-serif">Development (8%)</text>
</svg>