<svg xmlns="http://www.w3.org/2000/svg" viewBox="0 0 600 500" width="600" height="500">
<rect width="600" height="500" fill="white"/>
<text x="300.0" y="35" text-anchor="middle" font-size="16" font-weight="700" fill="#333" font-family="Segoe UI, Helvetica, Arial, sans-serif">Codebase by Component</text>
<path d="M 260.0,270.0 L 260.7,170.0 A 100.0,100.0 0 0,1 338.1,207.5 Z" fill="#4E79A7" stroke="white" stroke-width="1" opacity="0.95"/>
<text x="282" y="225" text-anchor="middle" dominant-baseline="central" font-size="12" font-weight="600" fill="white" font-family="Segoe UI, Helvetica, Arial, sans-serif">ApiService</text>
<path d="M 261.3,80.0 A 190.0,190.0 0 0,1 341.7,98.5 L 305.2,175.2 A 105.0,105.0 0 0,0 260.7,165.0 Z" fill="#EDC948" stroke="white" stroke-width="1" opacity="0.85"/>
<text x="293" y="126" text-anchor="middle" dominant-baseline="central" font-size="10" font-weight="600" fill="white" font-family="Segoe UI, Helvetica, Arial, sans-serif">Controllers</text>
<path d="M 344.1,99.6 A 190.0,190.0 0 0,1 366.5,112.7 L 318.9,183.0 A 105.0,105.0 0 0,0 306.5,175.8 Z" fill="#B07AA1" stroke="white" stroke-width="1" opacity="0.85"/>
<path d="M 368.7,114.2 A 190.0,190.0 0 0,1 408.4,151.3 L 342.0,204.4 A 105.0,105.0 0 0,0 320.1,183.9 Z" fill="#FF9DA7" stroke="white" stroke-width="1" opacity="0.85"/>
<text x="361" y="162" text-anchor="middle" dominant-baseline="central" font-size="10" font-weight="600" fill="white" font-family="Segoe UI, Helvetica, Arial, sans-serif">gRPC</text>
<path d="M 260.0,270.0 L 338.9,208.6 A 100.0,100.0 0 0,1 232.8,366.2 Z" fill="#F28E2B" stroke="white" stroke-width="1" opacity="0.95"/>
<text x="301" y="298" text-anchor="middle" dominant-baseline="central" font-size="12" font-weight="600" fill="white" font-family="Segoe UI, Helvetica, Arial, sans-serif">Core</text>
<path d="M 410.0,153.4 A 190.0,190.0 0 0,1 412.2,383.8 L 344.1,332.9 A 105.0,105.0 0 0,0 342.9,205.6 Z" fill="#EDC948" stroke="white" stroke-width="1" opacity="0.85"/>
<text x="407" y="269" text-anchor="middle" dominant-baseline="central" font-size="10" font-weight="600" fill="white" font-family="Segoe UI, Helvetica, Arial, sans-serif">Features</text>
<path d="M 410.6,385.9 A 190.0,190.0 0 0,1 307.3,454.0 L 286.1,371.7 A 105.0,105.0 0 0,0 343.2,334.0 Z" fill="#B07AA1" stroke="white" stroke-width="1" opacity="0.85"/>
<text x="341" y="393" text-anchor="middle" dominant-baseline="central" font-size="10" font-weight="600" fill="white" font-family="Segoe UI, Helvetica, Arial, sans-serif">Infrastructure</text>
<path d="M 304.7,454.7 A 190.0,190.0 0 0,1 208.4,452.9 L 231.5,371.0 A 105.0,105.0 0 0,0 284.7,372.1 Z" fill="#FF9DA7" stroke="white" stroke-width="1" opacity="0.85"/>
<text x="257" y="417" text-anchor="middle" dominant-baseline="central" font-size="10" font-weight="600" fill="white" font-family="Segoe UI, Helvetica, Arial, sans-serif">Models</text>
<path d="M 260.0,270.0 L 231.5,365.8 A 100.0,100.0 0 0,1 169.3,227.8 Z" fill="#E15759" stroke="white" stroke-width="1" opacity="0.95"/>
<text x="214" y="291" text-anchor="middle" dominant-baseline="central" font-size="12" font-weight="600" fill="white" font-family="Segoe UI, Helvetica, Arial, sans-serif">Web</text>
<path d="M 205.8,452.1 A 190.0,190.0 0 0,1 75.5,315.6 L 158.1,295.2 A 105.0,105.0 0 0,0 230.1,370.6 Z" fill="#EDC948" stroke="white" stroke-width="1" opacity="0.85"/>
<text x="153" y="372" text-anchor="middle" dominant-baseline="central" font-size="10" font-weight="600" fill="white" font-family="Segoe UI, Helvetica, Arial, sans-serif">Components</text>
<path d="M 74.9,313.0 A 190.0,190.0 0 0,1 74.1,230.5 L 157.3,248.2 A 105.0,105.0 0 0,0 157.7,293.8 Z" fill="#B07AA1" stroke="white" stroke-width="1" opacity="0.85"/>
<text x="113" y="271" text-anchor="middle" dominant-baseline="central" font-size="10" font-weight="600" fill="white" font-family="Segoe UI, Helvetica, Arial, sans-serif">Pages</text>
<path d="M 74.7,227.9 A 190.0,190.0 0 0,1 87.7,189.9 L 164.8,225.7 A 105.0,105.0 0 0,0 157.6,246.7 Z" fill="#FF9DA7" stroke="white" stroke-width="1" opacity="0.85"/>
<text x="120" y="222" text-anchor="middle" dominant-baseline="central" font-size="10" font-weight="600" fill="white" font-family="Segoe UI, Helvetica, Arial, sans-serif">Shared</text>
<path d="M 260.0,270.0 L 169.9,226.6 A 100.0,100.0 0 0,1 259.3,170.0 Z" fill="#76B7B2" stroke="white" stroke-width="1" opacity="0.95"/>
<text x="233" y="228" text-anchor="middle" dominant-baseline="central" font-size="12" font-weight="600" fill="white" font-family="Segoe UI, Helvetica, Arial, sans-serif">Tests</text>
<path d="M 88.8,187.5 A 190.0,190.0 0 0,1 202.4,88.9 L 228.2,169.9 A 105.0,105.0 0 0,0 165.4,224.4 Z" fill="#EDC948" stroke="white" stroke-width="1" opacity="0.85"/>
<text x="163" y="159" text-anchor="middle" dominant-baseline="central" font-size="10" font-weight="600" fill="white" font-family="Segoe UI, Helvetica, Arial, sans-serif">Unit</text>
<path d="M 204.9,88.2 A 190.0,190.0 0 0,1 258.7,80.0 L 259.3,165.0 A 105.0,105.0 0 0,0 229.6,169.5 Z" fill="#B07AA1" stroke="white" stroke-width="1" opacity="0.85"/>
<text x="238" y="124" text-anchor="middle" dominant-baseline="central" font-size="10" font-weight="600" fill="white" font-family="Segoe UI, Helvetica, Arial, sans-serif">Integration</text>
<rect x="470" y="70" width="14" height="14" rx="2" fill="#4E79A7"/>
<text x="490" y="81" font-size="10" fill="#444" font-family="Segoe UI, Helvetica, Arial, sans-serif">ApiService (14%)</text>
<rect x="470" y="92" width="14" height="14" rx="2" fill="#F28E2B"/>
<text x="490" y="103" font-size="10" fill="#444" font-family="Segoe UI, Helvetica, Arial, sans-serif">Core (40%)</text>
<rect x="470" y="114" width="14" height="14" rx="2" fill="#E15759"/>
<text x="490" y="125" font-size="10" fill="#444" font-family="Segoe UI, Helvetica, Arial, sans-serif">Web (28%)</text>
<rect x="470" y="136" width="14" height="14" rx="2" fill="#76B7B2"/>
<text x="490" y="147" font-size="10" fill="#444" font-family="Segoe UI, Helvetica, Arial, sans-serif">Tests (18%)</text>
</svg>